<svg xmlns="http://www.w3.org/2000/svg" viewBox="0 0 1200 800" preserveAspectRatio="xMidYMid slice" role="img" aria-hidden="true">
  <g stroke="#ffffff" stroke-width="1.5" fill="none" opacity="0.5">
    <line x1="120" y1="140" x2="340" y2="260"/>
    <line x1="340" y1="260" x2="560" y2="120"/>
    <line x1="340" y1="260" x2="420" y2="460"/>
    <line x1="560" y1="120" x2="780" y2="220"/>
    <line x1="420" y1="460" x2="680" y2="520"/>
    <line x1="680" y1="520" x2="780" y2="220"/>
    <line x1="780" y1="220" x2="980" y2="160"/>
    <line x1="680" y1="520" x2="900" y2="600"/>
    <line x1="980" y1="160" x2="1100" y2="320"/>
    <line x1="900" y1="600" x2="1100" y2="320"/>
    <line x1="420" y1="460" x2="220" y2="600"/>
    <line x1="220" y1="600" x2="120" y2="140"/>
    <line x1="60" y1="420" x2="220" y2="600"/>
    <line x1="60" y1="420" x2="120" y2="140"/>
    <line x1="980" y1="160" x2="1150" y2="60"/>
    <line x1="900" y1="600" x2="1020" y2="740"/>
    <line x1="420" y1="460" x2="560" y2="120"/>
  </g>
  <g fill="#ffffff">
    <circle cx="120" cy="140" r="8" opacity="0.7"/>
    <circle cx="340" cy="260" r="13" opacity="0.85"/>
    <circle cx="560" cy="120" r="9" opacity="0.6"/>
    <circle cx="420" cy="460" r="15" opacity="0.9"/>
    <circle cx="780" cy="220" r="10" opacity="0.7"/>
    <circle cx="680" cy="520" r="13" opacity="0.8"/>
    <circle cx="980" cy="160" r="8" opacity="0.6"/>
    <circle cx="1100" cy="320" r="10" opacity="0.7"/>
    <circle cx="900" cy="600" r="9" opacity="0.6"/>
    <circle cx="220" cy="600" r="11" opacity="0.75"/>
    <circle cx="60" cy="420" r="7" opacity="0.55"/>
    <circle cx="1150" cy="60" r="6" opacity="0.5"/>
    <circle cx="1020" cy="740" r="7" opacity="0.5"/>
  </g>
  <path d="M0 700 C 200 650, 400 760, 620 700 C 840 640, 1000 730, 1200 680 L1200 800 L0 800 Z" fill="#ffffff" opacity="0.08"/>
  <path d="M0 760 C 220 720, 420 800, 660 760 C 880 720, 1040 790, 1200 750 L1200 800 L0 800 Z" fill="#ffffff" opacity="0.06"/>
</svg>
